<?xml version="1.0" encoding="UTF-8"?>
<svg id="_레이어_1" data-name=" 레이어 1" xmlns="http://www.w3.org/2000/svg" viewBox="0 0 1067.93 248.02">
  <defs>
    <style>
      .cls-1 {
        fill: #27b778;
      }

      .cls-2 {
        fill: #fcc54d;
      }

      .cls-3 {
        fill: #fff;
      }

      .cls-4 {
        fill: #94bfaa;
      }

      .cls-5 {
        fill: #c7e77f;
      }
    </style>
  </defs>
  <path class="cls-1" d="M126.82,243.15H40.3C18.03,243.15,0,225.11,0,202.88V73.17C0,50.93,18.04,32.88,40.3,32.88h36.48l8.72,36.63-50.67,10.37,10.64,51.95,52.3-10.7,6.29,26.43-36.36-5.5-45.17,22.68,37.09,29.72,57.69,8.72,9.51,39.98h0Z"/>
  <path class="cls-1" d="M210.29,73.17v129.71c0,22.25-18.04,40.28-40.3,40.28h-28.14l-8.95-37.63,35.93,5.43,7.93-52.43-57.09-8.64-7.57-31.74,41.41-8.47,34.59-36.86-45.04-15.11-43.23,8.84-8.03-33.7h78.18c22.27,0,40.3,18.04,40.3,40.28v.02Z"/>
  <polygon class="cls-4" points="119.67 149.91 104.06 147.54 97.76 121.12 112.1 118.17 119.67 149.91"/>
  <g>
    <polygon class="cls-3" points="99.84 66.58 85.5 69.51 76.78 32.88 91.81 32.88 99.84 66.58"/>
    <polygon class="cls-3" points="119.67 149.91 104.06 147.54 97.76 121.12 112.1 118.17 119.67 149.91"/>
    <polygon class="cls-3" points="141.86 243.15 126.82 243.15 117.31 203.17 132.91 205.53 141.86 243.15"/>
  </g>
  <polygon class="cls-2" points="188.11 72.86 153.51 109.7 112.1 118.17 97.76 121.12 45.46 131.82 34.82 79.88 85.5 69.51 99.84 66.58 143.06 57.74 188.11 72.86"/>
  <polygon class="cls-5" points="176.76 158.53 168.84 210.96 132.91 205.53 117.31 203.17 59.61 194.45 22.54 164.73 67.71 142.04 104.06 147.54 119.67 149.91 176.76 158.53"/>
  <path class="cls-1" d="M239.73,31.76h55.05l79.14,127.84V31.76h55.05v210.96h-55.05l-79.14-130.23v130.23h-55.05V31.76Z"/>
  <path class="cls-1" d="M589.37,85.75h46.85v156.96h-47.11l-4.23-12.7c-7.42,6.17-15.75,10.76-25.01,13.77-9.26,3-18.83,4.41-28.72,4.23-12.36-.18-23.64-2.39-33.88-6.61-10.24-4.23-19.06-10.06-26.47-17.47-7.42-7.42-13.15-16.14-17.21-26.21-4.06-10.05-6.09-21.09-6.09-33.09s2.16-23.68,6.49-34.01c4.32-10.32,10.23-19.19,17.74-26.6,7.5-7.42,16.32-13.19,26.47-17.33,10.15-4.14,21.05-6.22,32.68-6.22,10.23,0,19.86,1.32,28.85,3.97,9,2.65,17.29,6.8,24.88,12.44l4.77-11.12h0ZM539.35,202.48c11.12,0,20.02-3.53,26.73-10.59,6.71-7.06,10.05-16.14,10.05-27.26s-3.35-20.95-10.05-27.92c-6.71-6.97-15.61-10.46-26.73-10.46s-20.02,3.48-26.73,10.46c-6.71,6.98-10.05,16.28-10.05,27.92s3.35,20.21,10.05,27.26c6.71,7.06,15.61,10.59,26.73,10.59Z"/>
  <path class="cls-1" d="M791.33,31.76h54.79v210.96h-47.11l-4.23-12.7c-7.42,6.17-15.75,10.76-25.01,13.77-9.26,3-18.83,4.41-28.72,4.23-12.36-.18-23.64-2.39-33.88-6.61-10.24-4.23-19.06-10.06-26.47-17.47-7.42-7.42-13.15-16.14-17.21-26.21-4.06-10.05-6.09-21.09-6.09-33.09s2.16-23.68,6.49-34.01c4.32-10.32,10.23-19.19,17.74-26.6,7.5-7.42,16.32-13.19,26.47-17.33,10.15-4.14,21.05-6.22,32.68-6.22,9.53,0,18.48,1.15,26.87,3.44,8.38,2.29,16.28,5.91,23.68,10.86V31.76h0ZM749.25,202.48c11.12,0,20.02-3.53,26.73-10.59,6.71-7.06,10.05-16.14,10.05-27.26s-3.35-20.95-10.05-27.92c-6.71-6.97-15.61-10.46-26.73-10.46s-20.02,3.48-26.73,10.46c-6.71,6.98-10.05,16.28-10.05,27.92s3.35,20.21,10.05,27.26c6.71,7.06,15.61,10.59,26.73,10.59Z"/>
  <path class="cls-1" d="M924.87,99.52c4.06-4.59,9.18-8.03,15.35-10.32,6.17-2.29,12.62-3.44,19.32-3.44h34.42l-9.53,45.52h-31.76c-3.18,0-6.17.71-9,2.12-2.83,1.42-5.3,3.36-7.42,5.82-2.12,2.47-3.8,5.38-5.03,8.74-1.24,3.36-1.86,6.98-1.86,10.86v83.9h-55.05V85.75h47.11l3.44,13.77h0Z"/>
  <rect class="cls-1" x="1012.88" y="85.75" width="55.05" height="156.96"/>
  <g>
    <path class="cls-2" d="M1067.73,28.27c-2.68,19.73-27.86,43.91-27.86,43.91,0,0-26.19-24.72-27.96-43.91C1010.48,12.72,1024.41,0,1039.82,0s30.01,12.79,27.91,28.27Z"/>
    <ellipse class="cls-3" cx="1039.87" cy="26.55" rx="13.63" ry="13.63"/>
  </g>
</svg>