<?xml version="1.0" encoding="UTF-8"?>
<svg id="_레이어_1" data-name="레이어 1" xmlns="http://www.w3.org/2000/svg" viewBox="0 0 1024 214.48">
  <defs>
    <style>
      .cls-1 {
        fill: #27b778;
      }

      .cls-2 {
        fill: #fcc54d;
      }

      .cls-3 {
        fill: #f8eedc;
      }

      .cls-4 {
        fill: #94bfaa;
      }

      .cls-5 {
        fill: #c7e77f;
      }
    </style>
  </defs>
  <path class="cls-1" d="M229.87,7.11h52.79l75.88,122.58V7.11h52.79v202.28h-52.79l-75.88-124.87v124.87h-52.79V7.11Z"/>
  <path class="cls-1" d="M565.13,58.88h44.92v150.5h-45.17l-4.06-12.18c-7.11,5.92-15.1,10.32-23.98,13.2-8.88,2.88-18.06,4.23-27.54,4.06-11.85-.17-22.67-2.29-32.49-6.34-9.82-4.06-18.28-9.65-25.38-16.75-7.11-7.11-12.61-15.48-16.5-25.13-3.89-9.64-5.84-20.22-5.84-31.73s2.07-22.71,6.22-32.61c4.14-9.9,9.81-18.4,17.01-25.51,7.19-7.11,15.65-12.65,25.38-16.62,9.73-3.97,20.18-5.96,31.34-5.96,9.81,0,19.04,1.27,27.66,3.81,8.63,2.54,16.58,6.52,23.86,11.93l4.57-10.66ZM517.16,170.81c10.66,0,19.2-3.38,25.63-10.15,6.43-6.77,9.64-15.48,9.64-26.14s-3.21-20.09-9.64-26.77c-6.43-6.68-14.97-10.03-25.63-10.03s-19.2,3.34-25.63,10.03c-6.43,6.69-9.64,15.61-9.64,26.77s3.21,19.38,9.64,26.14c6.43,6.77,14.97,10.15,25.63,10.15Z"/>
  <path class="cls-1" d="M758.78,7.11h52.54v202.28h-45.17l-4.06-12.18c-7.11,5.92-15.1,10.32-23.98,13.2-8.88,2.88-18.06,4.23-27.54,4.06-11.85-.17-22.67-2.29-32.49-6.34-9.82-4.06-18.28-9.65-25.38-16.75-7.11-7.11-12.61-15.48-16.5-25.13-3.89-9.64-5.84-20.22-5.84-31.73s2.07-22.71,6.22-32.61c4.14-9.9,9.81-18.4,17.01-25.51,7.19-7.11,15.65-12.65,25.38-16.62,9.73-3.97,20.18-5.96,31.34-5.96,9.14,0,17.72,1.1,25.76,3.3,8.04,2.2,15.61,5.67,22.71,10.41V7.11ZM718.43,170.81c10.66,0,19.2-3.38,25.63-10.15,6.43-6.77,9.64-15.48,9.64-26.14s-3.21-20.09-9.64-26.77c-6.43-6.68-14.97-10.03-25.63-10.03s-19.2,3.34-25.63,10.03c-6.43,6.69-9.64,15.61-9.64,26.77s3.21,19.38,9.64,26.14c6.43,6.77,14.97,10.15,25.63,10.15Z"/>
  <path class="cls-1" d="M886.83,72.08c3.89-4.4,8.8-7.7,14.72-9.9,5.92-2.2,12.1-3.3,18.53-3.3h33l-9.14,43.65h-30.45c-3.05,0-5.92.68-8.63,2.03-2.71,1.36-5.08,3.22-7.11,5.58-2.03,2.37-3.64,5.16-4.82,8.38-1.19,3.22-1.78,6.69-1.78,10.41v80.45h-52.79V58.88h45.17l3.3,13.2Z"/>
  <path class="cls-1" d="M1024,0v43.65h-52.79V0h52.79ZM1024,58.88v150.5h-52.79V58.88h52.79Z"/>
  <path class="cls-1" d="M121.6,209.81H38.64c-21.35,0-38.64-17.3-38.64-38.62V46.82C0,25.49,17.3,8.19,38.64,8.19h34.98l8.36,35.12-48.59,9.94,10.2,49.81,50.15-10.26,6.03,25.34-34.86-5.27-43.31,21.75,35.56,28.5,55.32,8.36,9.12,38.34Z"/>
  <path class="cls-1" d="M201.64,46.82v124.37c0,21.33-17.3,38.62-38.64,38.62h-26.98l-8.58-36.08,34.45,5.21,7.6-50.27-54.74-8.28-7.26-30.43,39.71-8.12,33.17-35.34-43.19-14.49-41.45,8.48-7.7-32.31h74.96c21.35,0,38.64,17.3,38.64,38.62Z"/>
  <polygon class="cls-4" points="114.75 120.4 99.78 118.13 93.74 92.8 107.49 89.97 114.75 120.4"/>
  <polygon class="cls-3" points="95.73 40.5 81.98 43.31 73.62 8.19 88.03 8.19 95.73 40.5"/>
  <polygon class="cls-3" points="114.75 120.4 99.78 118.13 93.74 92.8 107.49 89.97 114.75 120.4"/>
  <polygon class="cls-3" points="136.02 209.81 121.6 209.81 112.48 171.47 127.44 173.73 136.02 209.81"/>
  <polygon class="cls-2" points="180.37 46.52 147.2 81.85 107.49 89.97 93.74 92.8 43.59 103.06 33.39 53.25 81.98 43.31 95.73 40.5 137.18 32.02 180.37 46.52"/>
  <polygon class="cls-5" points="169.49 128.67 161.89 178.94 127.44 173.73 112.48 171.47 57.16 163.11 21.61 134.61 64.92 112.86 99.78 118.13 114.75 120.4 169.49 128.67"/>
</svg>